<?xml version="1.0" encoding="UTF-8" standalone="no"?>
<!-- Generator: Adobe Illustrator 25.4.1, SVG Export Plug-In . SVG Version: 6.00 Build 0)  -->

<svg
   version="1.1"
   id="Layer_1"
   x="0px"
   y="0px"
   viewBox="0 0 256 256"
   style="enable-background:new 0 0 256 256;"
   xml:space="preserve"
   sodipodi:docname="mint.svg"
   inkscape:version="1.2.2 (b0a8486541, 2022-12-01)"
   xmlns:inkscape="http://www.inkscape.org/namespaces/inkscape"
   xmlns:sodipodi="http://sodipodi.sourceforge.net/DTD/sodipodi-0.dtd"
   xmlns="http://www.w3.org/2000/svg"
   xmlns:svg="http://www.w3.org/2000/svg"><defs
   id="defs678">
	
	
	
</defs><sodipodi:namedview
   id="namedview676"
   pagecolor="#ffffff"
   bordercolor="#000000"
   borderopacity="0.25"
   inkscape:showpageshadow="2"
   inkscape:pageopacity="0.0"
   inkscape:pagecheckerboard="0"
   inkscape:deskcolor="#d1d1d1"
   showgrid="false"
   inkscape:zoom="1.7011719"
   inkscape:cx="118.74168"
   inkscape:cy="37.32721"
   inkscape:window-width="956"
   inkscape:window-height="1052"
   inkscape:window-x="960"
   inkscape:window-y="567"
   inkscape:window-maximized="1"
   inkscape:current-layer="Layer_1" />
<style
   type="text/css"
   id="style666">
	.st0{fill:#FFFFFF;}
	.st1{fill:#69B53F;}
	.st2{fill:#F8F8F8;}
</style>
<path
   id="circle668"
   style="fill:#000000"
   class="st0"
   d="M 128 0 A 128 128 0 0 0 0 128 A 128 128 0 0 0 128 256 A 128 128 0 0 0 256 128 A 128 128 0 0 0 128 0 z M 128 20 A 108 108 0 0 1 236 128 A 108 108 0 0 1 128 236 A 108 108 0 0 1 20 128 A 108 108 0 0 1 128 20 z " /><path
   id="_x3C_Path_x3E_"
   class="st2"
   d="m 58,63 v 90 c 0.1,22.1 17.9,39.9 40,40 h 60 c 22.1,-0.1 39.9,-17.9 40,-40 v -50 c -0.1,-16.5 -13.5,-29.9 -30,-30 -7.4,0 -14.5,2.8 -20,7.9 -5.5,-5 -12.6,-7.8 -20,-7.9 -16.5,0.1 -29.9,13.5 -30,30 v 50 h 20 v -50 c 0,-5.5 4.5,-10 10,-10 5.5,0 10,4.5 10,10 v 50 h 20 v -50 c 0,-5.5 4.5,-10 10,-10 5.5,0 10,4.5 10,10 v 50 c 0.1,11 -8.8,19.9 -19.7,20 -0.1,0 -0.2,0 -0.3,0 H 98 c -11,0.1 -19.9,-8.8 -20,-19.7 0,-0.1 0,-0.2 0,-0.3 V 63 Z"
   style="fill:#000000" />
</svg>
