<?xml version="1.0" encoding="UTF-8" standalone="no"?>
<!-- Generator: Adobe Illustrator 18.0.0, SVG Export Plug-In . SVG Version: 6.00 Build 0)  -->

<svg
   version="1.1"
   id="Capa_1"
   x="0px"
   y="0px"
   viewBox="0 0 480.44601 493.423"
   xml:space="preserve"
   sodipodi:docname="ubuntu.svg"
   width="480.44601"
   height="493.423"
   inkscape:version="1.2.2 (b0a8486541, 2022-12-01)"
   xmlns:inkscape="http://www.inkscape.org/namespaces/inkscape"
   xmlns:sodipodi="http://sodipodi.sourceforge.net/DTD/sodipodi-0.dtd"
   xmlns="http://www.w3.org/2000/svg"
   xmlns:svg="http://www.w3.org/2000/svg"><defs
   id="defs1497" /><sodipodi:namedview
   id="namedview1495"
   pagecolor="#ffffff"
   bordercolor="#000000"
   borderopacity="0.25"
   inkscape:showpageshadow="2"
   inkscape:pageopacity="0.0"
   inkscape:pagecheckerboard="0"
   inkscape:deskcolor="#d1d1d1"
   showgrid="false"
   inkscape:zoom="0.88260984"
   inkscape:cx="358.02909"
   inkscape:cy="224.90119"
   inkscape:window-width="956"
   inkscape:window-height="1052"
   inkscape:window-x="960"
   inkscape:window-y="567"
   inkscape:window-maximized="1"
   inkscape:current-layer="Capa_1" />
<g
   id="ubuntu"
   transform="translate(-6.489)">
	<g
   id="g1437">
		<g
   id="g1435">
			<path
   d="m 168.839,241.198 c 0,-38.117 17.894,-72.05 45.685,-93.896 L 171.988,79.22 c -35.648,25.603 -62.472,62.66 -75.127,105.796 19.811,12.751 32.949,35.031 32.949,60.353 0,24.424 -12.143,45.957 -30.783,58.918 13.606,40.86 40.12,75.838 74.706,100.113 l 39.559,-70.358 c -27.105,-21.838 -44.453,-55.318 -44.453,-92.844 z"
   id="path1433" />
		</g>
	</g>
	<g
   id="g1441">
		<path
   d="m 109.704,245.368 c 0,28.484 -23.132,51.592 -51.609,51.592 -28.491,0 -51.606,-23.107 -51.606,-51.592 0,-28.47 23.115,-51.577 51.606,-51.577 28.477,0 51.609,23.107 51.609,51.577 z"
   id="path1439" />
	</g>
	<g
   id="g1447">
		<g
   id="g1445">
			<path
   d="m 399.494,370.126 c 12.002,0 23.301,2.936 33.23,8.149 30.924,-32.591 50.906,-75.595 54.211,-123.228 l -80.148,-1.551 c -6.171,60.111 -56.954,106.941 -118.677,106.941 -17.084,0 -33.388,-3.594 -48.101,-10.093 l -39.841,69.704 c 26.56,13.069 56.376,20.411 87.941,20.411 13.622,0 26.981,-1.379 39.854,-4.006 2.746,-37.072 33.717,-66.327 71.531,-66.327 z"
   id="path1443" />
		</g>
	</g>
	<g
   id="g1451">
		<path
   d="m 451.071,441.847 c 0,28.478 -23.084,51.576 -51.577,51.576 -28.493,0 -51.594,-23.098 -51.594,-51.576 0,-28.5 23.101,-51.592 51.594,-51.592 28.493,0 51.577,23.092 51.577,51.592 z"
   id="path1449" />
	</g>
	<g
   id="g1457">
		<g
   id="g1455">
			<path
   d="m 438.211,110.152 c -11.677,8.269 -25.968,13.163 -41.399,13.163 -39.637,0 -71.73,-32.102 -71.73,-71.715 0,-2.104 0.094,-4.139 0.25,-6.181 -12.05,-2.307 -24.503,-3.491 -37.222,-3.491 -31.859,0 -61.988,7.498 -88.689,20.777 l 39.607,69.75 c 14.979,-6.748 31.593,-10.544 49.082,-10.544 61.177,0 111.601,46.074 118.491,105.414 l 80.147,-2.447 C 483.209,181.12 465.487,141.372 438.211,110.152 Z"
   id="path1453" />
		</g>
	</g>
	<g
   id="g1461">
		<path
   d="m 448.374,51.601 c 0,28.492 -23.038,51.592 -51.561,51.592 -28.491,0 -51.592,-23.1 -51.592,-51.592 C 345.22,23.107 368.321,0 396.812,0 c 28.523,0 51.562,23.107 51.562,51.601 z"
   id="path1459" />
	</g>
</g>
<g
   id="g1464"
   transform="translate(-6.489)">
</g>
<g
   id="g1466"
   transform="translate(-6.489)">
</g>
<g
   id="g1468"
   transform="translate(-6.489)">
</g>
<g
   id="g1470"
   transform="translate(-6.489)">
</g>
<g
   id="g1472"
   transform="translate(-6.489)">
</g>
<g
   id="g1474"
   transform="translate(-6.489)">
</g>
<g
   id="g1476"
   transform="translate(-6.489)">
</g>
<g
   id="g1478"
   transform="translate(-6.489)">
</g>
<g
   id="g1480"
   transform="translate(-6.489)">
</g>
<g
   id="g1482"
   transform="translate(-6.489)">
</g>
<g
   id="g1484"
   transform="translate(-6.489)">
</g>
<g
   id="g1486"
   transform="translate(-6.489)">
</g>
<g
   id="g1488"
   transform="translate(-6.489)">
</g>
<g
   id="g1490"
   transform="translate(-6.489)">
</g>
<g
   id="g1492"
   transform="translate(-6.489)">
</g>
</svg>
